PathFileType	4	(X/Y/Z)	D:\																																																																			
DataRate	CameraRate	NumFrames	NumMarkers	Units	OrigDataRate	OrigDataStartFrame	OrigNumFrames																																																															
240	240	11	21	mm	240	313	833																																																															
Frame#	Time	Top.Head			Front.Head			Rear.Head			R.Shoulder			R.Elbow			R.Wrist			L.Shoulder			L.Elbow			L.Wrist			Offset1			R.ASIS			L.ASIS			V.Sacral			R.Knee			R.Ankle			R.Toe			R.Heel			L.Knee			L.Ankle			L.Toe			L.Heel			V_Head			V_Pelvis		
		X1	Y1	Z1	X2	Y2	Z2	X3	Y3	Z3	X4	Y4	Z4	X5	Y5	Z5	X6	Y6	Z6	X7	Y7	Z7	X8	Y8	Z8	X9	Y9	Z9	X10	Y10	Z10	X11	Y11	Z11	X12	Y12	Z12	X13	Y13	Z13	X14	Y14	Z14	X15	Y15	Z15	X16	Y16	Z16	X17	Y17	Z17	X18	Y18	Z18	X19	Y19	Z19	X20	Y20	Z20	X21	Y21	Z21	X22	Y22	Z22	X23	Y23	Z23
																																																																						
313	1.3	452.95023	-46.96689	1456.1377	446.74567	70.93106	1426.35815	448.72037	-115.19463	1387.91321	618.34204	-10.06879	1123.76929	614.01105	9.90742	801.32947	406.86563	97.87674	934.77765	263.2572	-20.85338	1162.25671	235.31833	-11.76383	825.87195	448.19312	54.69338	951.68878	550.87817	-195.36601	1051.70459	613.78967	-286.01608	713.87109	263.67566	-252.7724	695.84888	445.79739	-421.89218	706.22461	659.02307	-44.99168	369.80438	615.81451	-245.5499	98.87454	631.51758	-51.91199	46.65681	553.13123	-320.65384	45.45751	221.55045	-5.91762	396.05109	236.44157	-236.65396	100.46897	230.02657	-60.13791	50.65886	290.47552	-320.87704	51.0644	447.733	-22.13177	1407.1355	432.06805	-339.50879	704.98285
314	1.304	452.93195	-45.26295	1450.58447	446.72522	72.66013	1420.89258	448.68652	-113.43933	1382.31592	618.258	-8.59918	1118.15991	613.8587	10.1367	795.67804	406.79071	98.69431	928.80963	263.16992	-18.99727	1156.68127	235.31325	-11.37759	820.23993	448.17978	55.4746	945.81238	550.70709	-194.12448	1046.94287	613.78455	-286.483	710.01892	263.31049	-253.10786	692.21649	445.57751	-422.41644	701.67114	659.45313	-43.2162	369.21231	615.55219	-245.2552	99.08289	631.59821	-51.80442	46.45691	552.71631	-320.44861	45.55072	220.87477	-4.00053	395.19534	236.34024	-236.27496	100.85135	230.03995	-59.97722	50.49529	290.49701	-320.65533	51.81235	447.70587	-20.3896	1401.60425	431.87537	-339.9809	700.86993
315	1.308	452.91141	-43.57817	1445.03357	446.69846	74.36453	1415.4303	448.65271	-111.69476	1376.72498	618.17133	-7.15894	1112.5542	613.72351	10.36573	790.04419	406.72604	99.50449	922.8678	263.08188	-17.16231	1151.10034	235.32127	-11.00055	814.60815	448.16794	56.24694	939.96539	550.52856	-192.89221	1042.17065	613.771	-286.93347	706.16187	262.93652	-253.43318	688.60339	445.3609	-422.92712	697.08997	659.91901	-41.45859	368.62564	615.2782	-244.93793	99.29207	631.68274	-51.67735	46.24839	552.26196	-320.22519	45.65523	220.19836	-2.08949	394.39514	236.19327	-235.88785	101.27538	230.06177	-59.81209	50.3318	290.4808	-320.4216	52.62249	447.67557	-18.66512	1396.07751	431.6759	-340.4375	696.74829
316	1.313	452.88928	-41.91524	1439.48792	446.66666	76.04445	1409.97571	448.61673	-109.96715	1371.14368	618.0827	-5.73248	1106.95984	613.60718	10.59507	784.42889	406.6749	100.30531	916.95001	262.98819	-15.35059	1145.51379	235.33894	-10.63136	808.97998	448.15637	57.00504	934.14557	550.34766	-191.66856	1037.39319	613.7475	-287.37347	702.30957	262.55701	-253.73676	685.00476	445.14615	-423.42078	692.48297	660.40826	-39.72557	368.03949	615.0047	-244.59918	99.51235	631.77118	-51.53584	46.02769	551.78064	-319.98309	45.7848	219.52394	-0.17859	393.64688	236.00836	-235.49065	101.73747	230.09094	-59.64875	50.16841	290.42725	-320.1795	53.49127	447.64169	-16.96133	1390.55957	431.46701	-340.87469	692.61963
317	1.317	452.86502	-40.27551	1433.95068	446.63272	77.70009	1404.5321	448.57657	-108.26321	1365.5741	617.9895	-4.31073	1101.38306	613.50934	10.82265	778.83386	406.63913	101.09309	911.05457	262.88815	-13.56255	1139.9248	235.36322	-10.26681	803.35889	448.14334	57.74652	928.35107	550.16675	-190.45322	1032.61426	613.71503	-287.81052	698.4718	262.17645	-254.00407	681.41589	444.92877	-423.89517	687.85388	660.90918	-38.02332	367.45471	614.74078	-244.24097	99.75249	631.8634	-51.38771	45.79324	551.28815	-319.72385	45.95529	218.85168	1.73851	392.94434	235.79361	-235.07614	102.22937	230.12395	-59.49083	50.00589	290.33972	-319.93231	54.41381	447.60464	-15.28156	1385.05298	431.24704	-341.28821	688.48651
318	1.321	452.8371	-38.65988	1428.42468	446.5993	79.33043	1399.10083	448.53159	-106.58725	1360.01733	617.88739	-2.89124	1095.82776	613.42621	11.04305	773.25928	406.61938	101.86349	905.17932	262.78616	-11.79411	1134.34033	235.39427	-9.90129	797.74976	448.12738	58.47203	922.58142	549.98584	-189.24634	1027.83838	613.67609	-288.25366	694.65845	261.79959	-254.22318	677.83435	444.70218	-424.34961	683.20929	661.41321	-36.35735	366.87769	614.4906	-243.86774	100.01896	631.95837	-51.24083	45.54522	550.79907	-319.45172	46.18307	218.18134	3.66365	392.27759	235.5573	-234.63507	102.74036	230.15399	-59.33965	49.84638	290.22574	-319.6817	55.38309	447.56546	-13.62842	1379.55896	431.01529	-341.67603	684.35388
319	1.325	452.80414	-37.06984	1422.91333	446.56866	80.93449	1393.68213	448.48178	-104.94043	1354.47522	617.77466	-1.47412	1090.29626	613.35175	11.25024	767.70331	406.61533	102.61469	899.32184	262.68781	-10.03908	1128.76636	235.43501	-9.5271	792.15869	448.10635	59.18287	916.8371	549.8042	-188.04811	1023.0719	613.63257	-288.7114	690.87799	261.43051	-254.38882	674.26257	444.45969	-424.78531	678.55792	661.91589	-34.73172	366.31821	614.25531	-243.48743	100.31636	632.05347	-51.10013	45.28398	550.32635	-319.1731	46.4821	217.51405	5.59319	391.63507	235.30809	-234.16289	103.26106	230.17278	-59.19532	49.69284	290.09619	-319.4281	56.391	447.52521	-12.00296	1374.07861	430.77209	-342.03918	680.22864
320	1.329	452.76645	-35.50534	1417.42065	446.54312	82.51373	1388.27661	448.42633	-103.32104	1348.94971	617.65387	-0.06184	1084.78992	613.27917	11.44195	762.16522	406.62503	103.34906	893.48169	262.59473	-8.29436	1123.20581	235.4884	-9.138	786.59155	448.07736	59.88143	911.11902	549.62158	-186.85956	1018.32227	613.5863	-289.18924	687.13654	261.07211	-254.50104	670.7063	444.1972	-425.20483	673.90857	662.41443	-33.14894	365.78711	614.03662	-243.10863	100.64804	632.14514	-50.96622	45.0099	549.88184	-318.89453	46.86169	216.85173	7.52039	391.0058	235.05473	-233.6637	103.78573	230.17432	-59.05801	49.5471	289.96286	-319.17035	57.42748	447.48471	-10.40363	1368.61316	430.51868	-342.38	676.1181
321	1.333	452.72659	-33.9623	1411.95203	446.52429	84.07178	1382.88574	448.36417	-101.72527	1343.44299	617.53088	1.34088	1079.30811	613.20331	11.61867	756.646	406.64438	104.07178	887.6626	262.50165	-6.56059	1117.65991	235.55461	-8.73409	781.05066	448.03955	60.57248	905.42883	549.43793	-185.68436	1013.59662	613.53986	-289.69043	683.43756	260.72693	-254.56226	667.17206	443.91541	-425.61023	669.26953	662.9057	-31.60954	365.29547	613.83875	-242.73637	101.01583	632.23059	-50.83622	44.72475	549.47681	-318.62146	47.32576	216.19693	9.43793	390.38177	234.80463	-233.14828	104.31123	230.15712	-58.92886	49.40826	289.83502	-318.90512	58.47833	447.44421	-8.82672	1363.16443	430.25735	-342.70123	672.02893
322	1.337	452.6882	-32.43394	1406.51282	446.51242	85.6123	1377.51294	448.29611	-100.1487	1337.95728	617.41266	2.72908	1073.84949	613.12268	11.78015	751.14795	406.66785	104.7887	881.87109	262.39789	-4.84084	1112.12988	235.62996	-8.32283	775.5354	447.99521	61.26197	899.76959	549.25159	-184.52798	1008.90112	613.49689	-290.21649	679.78381	260.39822	-254.5773	663.66547	443.61859	-426.00043	664.64905	663.38586	-30.1104	364.85492	613.66937	-242.37115	101.41948	632.30896	-50.70641	44.4326	549.12079	-318.35623	47.87271	215.55441	11.3394	389.75836	234.56273	-232.62933	104.83479	230.12323	-58.80978	49.27276	289.7182	-318.63	59.52715	447.40424	-7.26817	1357.73511	429.99231	-343.00592	667.96716
323	1.342	452.65369	-30.91478	1401.10828	446.50583	87.13757	1372.16467	448.22507	-98.58784	1332.49634	617.3045	4.09904	1068.41333	613.03979	11.92507	745.67407	406.69019	105.50389	876.11145	262.27341	-3.13829	1106.61731	235.70888	-7.91465	770.04297	447.94751	61.95356	894.14478	549.06042	-183.39404	1004.24023	613.46259	-290.76624	676.17871	260.08923	-254.55316	660.19092	443.31216	-426.37012	660.05634	663.85028	-28.64386	364.47574	613.53723	-242.01083	101.8576	632.38165	-50.57478	44.13943	548.82001	-318.09772	48.49625	214.93094	13.21939	389.13342	234.33186	-232.11813	105.35361	230.07695	-58.70333	49.13585	289.61456	-318.34714	60.55996	447.36545	-5.7251	1352.33057	429.72931	-343.29736	663.93909
